<?xml version="1.0" encoding="UTF-8"?>
<svg width="16px" height="16px" viewBox="0 0 16 16" version="1.1" xmlns="http://www.w3.org/2000/svg" xmlns:xlink="http://www.w3.org/1999/xlink">
    <!-- Generator: Sketch 55.2 (78181) - https://sketchapp.com -->
    <title>icon-search</title>
    <desc>Created with Sketch.</desc>
    <g id="Symbols" stroke="none" stroke-width="1" fill="none" fill-rule="evenodd">
        <g id="search-/-alt" transform="translate(-24.000000, -18.000000)" fill="#3D3B49">
            <g id="Group">
                <g id="icon-/-search" transform="translate(24.000000, 18.000000)">
                    <path d="M6.0364,1.80213333 C8.34173333,1.80746667 10.2084,3.63546667 10.2084,5.8888 C10.2084,8.14213333 8.34173333,9.97013333 6.0364,9.97547836 C3.73106667,9.9808 1.8564,8.1608 1.84572132,5.90746667 C1.84306667,4.81946667 2.2844,3.77546667 3.06973333,3.0048 C3.8564,2.23546667 4.9244,1.80213333 6.0364,1.80213333 L6.0364,1.80213333 Z M6.0364,11.8141333 C7.18306667,11.8194667 8.3084,11.5034667 9.27773333,10.9034667 L13.9337333,15.4541333 C14.2057333,15.7194667 14.6470667,15.7194667 14.9204,15.4541333 L15.7950667,14.5994667 C16.0670667,14.3314667 16.0670667,13.9008 15.7950667,13.6341333 L11.1390667,9.08346667 C12.6230667,6.8088 12.3417333,3.8408 10.4564,1.87013333 C8.56973333,-0.0992 5.55773333,-0.569866667 3.13773333,0.727466667 C0.717733333,2.0248 -0.4956,4.7608 0.189733333,7.37413333 C0.875066667,9.98746667 3.28573333,11.8154667 6.04573333,11.8141333 L6.0364,11.8141333 Z" id="Fill-1"></path>
                </g>
            </g>
        </g>
    </g>
</svg>